# xmcd
#
# Track frame offsets:
# 150
# 21311
# 40075
# 53975
# 64763
# 78790
# 95789
# 132168
# 149313
# 166452
# 184821
# 201902
# 223095
# 235951
# 258686
# 272975
# 293631
# 311527
#
# Disc length: 4431 seconds
#
#
# Revision: 0
# Processed by: cddbd v1.5.2PL0 Copyright (c) Steve Scherf et al.
# Submitted via: FreeRIP 2.951 
#
DISCID=16114d12
DTITLE=Alan e Alex - ao vivo em BH
DYEAR=2008
DGENRE=sertanejo universitário
TTITLE0=O mió q ta teno
TTITLE1=Entre tapas e beijos - cade vc - meu ex amor
TTITLE2=Pior é te perder
TTITLE3=Fogo e paixão
TTITLE4=Eu te amo
TTITLE5=Porque
TTITLE6=Pagina de amigos - covite de casamento - ela é demais
TTITLE7=Bao de mais
TTITLE8=Lumiá (xote da lua)
TTITLE9=Rumo a Goiania
TTITLE10=Amor verdadeiro
TTITLE11=Voltas pra mim
TTITLE12=Dou a vida por um beijo
TTITLE13=Fio de cabelo
TTITLE14=De vitoria a BH
TTITLE15=Louca paixão
TTITLE16=O tal coração
TTITLE17=Cabelo loiro
EXTD=jdsa@uai.com.br
EXTT0=
EXTT1=
EXTT2=
EXTT3=
EXTT4=
EXTT5=
EXTT6=
EXTT7=
EXTT8=
EXTT9=
EXTT10=
EXTT11=
EXTT12=
EXTT13=
EXTT14=
EXTT15=
EXTT16=
EXTT17=
PLAYORDER=
